<svg width="153" height="32" viewBox="0 0 153 32" fill="none" xmlns="http://www.w3.org/2000/svg">
<path d="M28.1434 5.23047C29.5853 5.23047 30.7542 4.05959 30.7542 2.61523C30.7542 1.17088 29.5853 0 28.1434 0C26.7016 0 25.5327 1.17088 25.5327 2.61523C25.5327 4.05959 26.7016 5.23047 28.1434 5.23047Z" fill="#FACC15"/>
<path d="M20.1053 21.9275C19.0127 21.9275 18.1238 22.7983 18.0925 23.8837C18.0925 23.9046 18.0925 23.9242 18.0925 23.9451C18.0925 23.966 18.0925 23.9856 18.0925 24.0066C18.082 24.7192 17.8862 25.3861 17.552 25.9628C16.8563 27.1632 15.5588 27.9713 14.0733 27.9713C12.5878 27.9713 11.2889 27.1632 10.5945 25.9628C10.2694 25.4031 10.0762 24.7571 10.0554 24.068C10.054 24.0275 10.0527 23.9856 10.0527 23.9438C10.0527 23.902 10.0527 23.8614 10.0554 23.8196C9.99139 22.763 9.11549 21.9261 8.04509 21.9261C6.9747 21.9261 6.09619 22.7643 6.03353 23.8222C6.03223 23.8627 6.03223 23.9033 6.03223 23.9438C6.03223 23.9843 6.03223 24.0249 6.03353 24.0654C6.04267 24.7192 6.13013 25.3547 6.28677 25.9628C7.18094 29.4345 10.3282 31.9987 14.0733 31.9987C17.8183 31.9987 20.9656 29.4345 21.8597 25.9628C22.0112 25.3743 22.0986 24.7598 22.1117 24.1256C22.113 24.0654 22.1143 24.0053 22.1143 23.9438C22.1143 23.8823 22.1143 23.8222 22.1117 23.762C22.0203 22.7329 21.1575 21.9261 20.1066 21.9261L20.1053 21.9275Z" fill="#F8FAFC"/>
<path d="M24.1231 4.88918C22.9404 4.20399 21.5672 3.81171 20.1026 3.81171C18.638 3.81171 17.2647 4.20399 16.0821 4.88918C15.3249 5.32723 14.6462 5.88689 14.0718 6.5394C13.4974 5.88559 12.8187 5.32723 12.0615 4.88918C10.8789 4.20399 9.50564 3.81171 8.04103 3.81171H0V11.8666C0 14.763 1.52597 17.3011 3.81427 18.7198C3.81427 18.7198 3.81688 18.7212 3.81949 18.7225C3.88345 18.7617 3.95133 18.797 4.02051 18.8284C4.27636 18.9474 4.56224 19.0128 4.86247 19.0128C5.97595 19.0128 6.87665 18.1092 6.87665 16.9951C6.87665 16.323 6.549 15.7293 6.04644 15.3619C5.96028 15.3122 5.87543 15.2599 5.7945 15.205H5.7932C4.7241 14.4806 4.02182 13.2553 4.02182 11.8666C4.02182 9.64237 5.82191 7.83917 8.04233 7.83917C10.2628 7.83917 12.0628 9.64237 12.0628 11.8666V20.8473C12.1268 21.9039 13.0027 22.7408 14.0731 22.7408C15.1435 22.7408 16.0194 21.9026 16.0834 20.8473V11.8666C16.0834 9.64237 17.8835 7.83917 20.1039 7.83917C22.3243 7.83917 24.1244 9.64237 24.1244 11.8666V20.7231C24.1244 21.8372 25.0264 22.7408 26.1386 22.7408C27.1894 22.7408 28.0509 21.9366 28.1449 20.9088V11.8666C28.1449 8.88526 26.5276 6.2818 24.1244 4.88918H24.1231Z" fill="#F8FAFC"/>
<path d="M132.274 23.9569V5H135.298V12.1765H135.73C135.858 11.8877 136.058 11.5988 136.33 11.3099C136.602 11.0211 136.962 10.7864 137.41 10.6058C137.874 10.4072 138.458 10.3079 139.162 10.3079C140.09 10.3079 140.898 10.5517 141.586 11.0391C142.29 11.5085 142.834 12.1675 143.218 13.0161C143.602 13.8465 143.794 14.8215 143.794 15.9408V23.9569H140.77V16.2116C140.77 15.2006 140.546 14.4423 140.098 13.9368C139.666 13.4313 139.042 13.1785 138.226 13.1785C137.298 13.1785 136.578 13.5306 136.066 14.2347C135.554 14.9208 135.298 15.8867 135.298 17.1324V23.9569H132.274Z" fill="white"/>
<path d="M122.095 24.336C121.247 24.336 120.487 24.1735 119.815 23.8486C119.143 23.5055 118.607 23.0181 118.207 22.3862C117.823 21.7362 117.631 20.9509 117.631 20.0301C117.631 19.1093 117.823 18.342 118.207 17.7282C118.607 17.0963 119.151 16.6269 119.839 16.32C120.543 15.995 121.343 15.8325 122.239 15.8325H125.503V15.0742C125.503 14.4423 125.327 13.9278 124.975 13.5306C124.623 13.1154 124.063 12.9077 123.295 12.9077C122.543 12.9077 121.983 13.1063 121.615 13.5035C121.247 13.8827 121.007 14.3791 120.895 14.993L118.111 13.9368C118.303 13.2508 118.607 12.6279 119.023 12.0682C119.455 11.4905 120.023 11.0301 120.727 10.6871C121.447 10.326 122.319 10.1454 123.343 10.1454C124.911 10.1454 126.151 10.5878 127.063 11.4724C127.975 12.3571 128.431 13.6389 128.431 15.318V20.328C128.431 20.8696 128.655 21.1404 129.103 21.1404H130.063V23.9569H128.047C127.455 23.9569 126.967 23.7944 126.583 23.4694C126.199 23.1444 126.007 22.7111 126.007 22.1695V22.1424H125.551C125.487 22.3591 125.343 22.648 125.119 23.009C124.895 23.3521 124.543 23.659 124.063 23.9298C123.583 24.2006 122.927 24.336 122.095 24.336ZM122.623 21.5737C123.471 21.5737 124.159 21.3119 124.687 20.7884C125.231 20.2468 125.503 19.5336 125.503 18.649V18.3781H122.455C121.895 18.3781 121.455 18.5136 121.135 18.7844C120.815 19.0552 120.655 19.4343 120.655 19.9218C120.655 20.4092 120.823 20.8064 121.159 21.1134C121.495 21.4203 121.983 21.5737 122.623 21.5737Z" fill="white"/>
<path d="M112.024 23.9569V5H115.048V23.9569H112.024Z" fill="white"/>
<path d="M105.649 23.9569V5H108.673V23.9569H105.649Z" fill="white"/>
<path d="M95.3957 24.1735C94.4677 24.1735 93.6517 23.9388 92.9477 23.4694C92.2597 22.982 91.7237 22.314 91.3397 21.4654C90.9557 20.6169 90.7637 19.642 90.7637 18.5406V10.5246H93.7877V18.2698C93.7877 19.2809 94.0037 20.0391 94.4357 20.5447C94.8837 21.0502 95.5157 21.3029 96.3317 21.3029C97.2597 21.3029 97.9797 20.9599 98.4917 20.2738C99.0037 19.5697 99.2597 18.5948 99.2597 17.3491V10.5246H102.284V23.9569H99.3077V22.1966H98.8757C98.6837 22.648 98.3237 23.0903 97.7957 23.5236C97.2677 23.9569 96.4677 24.1735 95.3957 24.1735Z" fill="white"/>
<path d="M80.355 24.336C79.411 24.336 78.523 24.0742 77.691 23.5507C76.875 23.009 76.219 22.2237 75.723 21.1946C75.227 20.1655 74.979 18.9198 74.979 17.4574V17.0241C74.979 15.5617 75.227 14.316 75.723 13.2869C76.219 12.2578 76.875 11.4814 77.691 10.9579C78.507 10.4163 79.395 10.1454 80.355 10.1454C81.075 10.1454 81.675 10.2447 82.155 10.4433C82.651 10.6239 83.051 10.8586 83.355 11.1474C83.659 11.4363 83.891 11.7432 84.051 12.0682H84.483V5H87.507V23.9569H84.531V22.332H84.099C83.827 22.8375 83.403 23.2979 82.827 23.7131C82.267 24.1284 81.443 24.336 80.355 24.336ZM81.267 21.3571C82.195 21.3571 82.971 21.0231 83.595 20.3551C84.219 19.669 84.531 18.676 84.531 17.3761V17.1053C84.531 15.8054 84.219 14.8215 83.595 14.1535C82.987 13.4674 82.211 13.1244 81.267 13.1244C80.339 13.1244 79.563 13.4674 78.939 14.1535C78.315 14.8215 78.003 15.8054 78.003 17.1053V17.3761C78.003 18.676 78.315 19.669 78.939 20.3551C79.563 21.0231 80.339 21.3571 81.267 21.3571Z" fill="white"/>
<path d="M67.4025 24.336C66.3305 24.336 65.5065 24.1284 64.9305 23.7131C64.3545 23.2979 63.9305 22.8375 63.6585 22.332H63.2265V23.9569H60.2505V5H63.2745V12.0682H63.7065C63.8825 11.7432 64.1145 11.4363 64.4025 11.1474C64.7065 10.8586 65.0985 10.6239 65.5785 10.4433C66.0745 10.2447 66.6825 10.1454 67.4025 10.1454C68.3625 10.1454 69.2505 10.4163 70.0665 10.9579C70.8825 11.4814 71.5385 12.2578 72.0345 13.2869C72.5305 14.316 72.7785 15.5617 72.7785 17.0241V17.4574C72.7785 18.9198 72.5305 20.1655 72.0345 21.1946C71.5385 22.2237 70.8825 23.009 70.0665 23.5507C69.2505 24.0742 68.3625 24.336 67.4025 24.336ZM66.4905 21.3571C67.4185 21.3571 68.1945 21.0231 68.8185 20.3551C69.4425 19.669 69.7545 18.676 69.7545 17.3761V17.1053C69.7545 15.8054 69.4425 14.8215 68.8185 14.1535C68.2105 13.4674 67.4345 13.1244 66.4905 13.1244C65.5625 13.1244 64.7865 13.4674 64.1625 14.1535C63.5385 14.8215 63.2265 15.8054 63.2265 17.1053V17.3761C63.2265 18.676 63.5385 19.669 64.1625 20.3551C64.7865 21.0231 65.5625 21.3571 66.4905 21.3571Z" fill="white"/>
<path d="M50.0714 24.336C49.2234 24.336 48.4634 24.1735 47.7914 23.8486C47.1194 23.5055 46.5834 23.0181 46.1834 22.3862C45.7994 21.7362 45.6074 20.9509 45.6074 20.0301C45.6074 19.1093 45.7994 18.342 46.1834 17.7282C46.5834 17.0963 47.1274 16.6269 47.8154 16.32C48.5194 15.995 49.3194 15.8325 50.2154 15.8325H53.4794V15.0742C53.4794 14.4423 53.3034 13.9278 52.9514 13.5306C52.5994 13.1154 52.0394 12.9077 51.2714 12.9077C50.5194 12.9077 49.9594 13.1063 49.5914 13.5035C49.2234 13.8827 48.9834 14.3791 48.8714 14.993L46.0874 13.9368C46.2794 13.2508 46.5834 12.6279 46.9994 12.0682C47.4314 11.4905 47.9994 11.0301 48.7034 10.6871C49.4234 10.326 50.2954 10.1454 51.3194 10.1454C52.8874 10.1454 54.1274 10.5878 55.0394 11.4724C55.9514 12.3571 56.4074 13.6389 56.4074 15.318V20.328C56.4074 20.8696 56.6314 21.1404 57.0794 21.1404H58.0394V23.9569H56.0234C55.4314 23.9569 54.9434 23.7944 54.5594 23.4694C54.1754 23.1444 53.9834 22.7111 53.9834 22.1695V22.1424H53.5274C53.4634 22.3591 53.3194 22.648 53.0954 23.009C52.8714 23.3521 52.5194 23.659 52.0394 23.9298C51.5594 24.2006 50.9034 24.336 50.0714 24.336ZM50.5994 21.5737C51.4474 21.5737 52.1354 21.3119 52.6634 20.7884C53.2074 20.2468 53.4794 19.5336 53.4794 18.649V18.3781H50.4314C49.8714 18.3781 49.4314 18.5136 49.1114 18.7844C48.7914 19.0552 48.6314 19.4343 48.6314 19.9218C48.6314 20.4092 48.7994 20.8064 49.1354 21.1134C49.4714 21.4203 49.9594 21.5737 50.5994 21.5737Z" fill="white"/>
<path d="M37.344 24.336C36.16 24.336 35.096 24.0652 34.152 23.5236C33.208 22.982 32.464 22.1966 31.92 21.1675C31.376 20.1384 31.104 18.9017 31.104 17.4574V17.0241C31.104 15.5798 31.376 14.343 31.92 13.314C32.464 12.2849 33.208 11.4995 34.152 10.9579C35.096 10.4163 36.16 10.1454 37.344 10.1454C38.528 10.1454 39.592 10.4163 40.536 10.9579C41.48 11.4995 42.224 12.2849 42.768 13.314C43.312 14.343 43.584 15.5798 43.584 17.0241V17.4574C43.584 18.9017 43.312 20.1384 42.768 21.1675C42.224 22.1966 41.48 22.982 40.536 23.5236C39.592 24.0652 38.528 24.336 37.344 24.336ZM37.344 21.3029C38.272 21.3029 39.04 20.9689 39.648 20.3009C40.256 19.6149 40.56 18.6399 40.56 17.3761V17.1053C40.56 15.8415 40.256 14.8756 39.648 14.2076C39.056 13.5216 38.288 13.1785 37.344 13.1785C36.416 13.1785 35.648 13.5216 35.04 14.2076C34.432 14.8756 34.128 15.8415 34.128 17.1053V17.3761C34.128 18.6399 34.432 19.6149 35.04 20.3009C35.648 20.9689 36.416 21.3029 37.344 21.3029Z" fill="white"/>
</svg>
